<?xml version="1.0" encoding="iso-8859-1"?>
<!-- Generator: Adobe Illustrator 19.0.0, SVG Export Plug-In . SVG Version: 6.00 Build 0)  -->
<svg version="1.1" id="Layer_1" xmlns="http://www.w3.org/2000/svg" xmlns:xlink="http://www.w3.org/1999/xlink" x="0px" y="0px"
	 viewBox="0 0 512 512" style="enable-background:new 0 0 512 512;" xml:space="preserve">
<path style="fill:#754C24;" d="M416.371,197.714c0,0-9.575-16.632-9.575-31.575c0-10.828,4.663-22.772,4.663-22.772
	c1.327-3.398,0.317-8.289-2.247-10.871l-91.837-92.56c-2.563-2.582-6.753-2.582-9.314,0L163.435,185.699l138.003,136.923
	L415.016,208.15C417.579,205.568,418.187,200.871,416.371,197.714z"/>
<path style="fill:#512C0E;" d="M408.644,131.923l-11.038-11.126l-43.864,44.178l-32.741-32.998l43.865-44.177l-11.04-11.126
	l-43.864,44.177L268.87,79.435l-11.039,11.126l41.089,41.412l-34.616,34.863l-41.078-41.4l-11.038,11.126l41.074,41.397
	l-48.448,48.794l11.125,11.039l48.361-48.707l32.741,32.998l-48.104,48.448l11.126,11.038l48.017-48.361l41.036,41.36l11.039-11.126
	l-41.033-41.356l34.616-34.863l41.021,41.343l11.038-11.126l-41.016-41.339L408.644,131.923z M308.083,210.96l-32.741-32.998
	l34.616-34.863l32.739,32.998L308.083,210.96z"/>
<path style="opacity:0.1;enable-background:new    ;" d="M180.409,202.54l149.15-150.325l-12.183-12.28
	c-2.563-2.582-6.753-2.582-9.314,0L163.435,185.699L180.409,202.54z"/>
<path style="fill:#85CCA2;" d="M159.061,484.554c-5.124,5.163-13.504,5.163-18.628,0L3.843,346.89
	c-5.124-5.163-5.124-13.613,0-18.777l146.755-147.911c5.124-5.163,13.508-5.163,18.633,0l136.586,137.664
	c5.124,5.164,5.124,13.614,0,18.778L159.061,484.554z"/>
<path style="fill:#E84731;" d="M107.545,380.035c-1.512-1.527-2.388-3.57-2.433-5.678l-1.692-77.62
	c-0.245-10.966,3.764-21.182,11.288-28.765c7.522-7.582,17.659-11.621,28.539-11.379c10.886,0.246,21.212,4.748,29.082,12.682
	c7.867,7.929,12.333,18.334,12.577,29.305l0.077,3.408l3.379,0.074c10.884,0.247,21.21,4.749,29.077,12.679
	c7.867,7.931,12.339,18.34,12.582,29.309c0.239,10.967-3.767,21.183-11.29,28.765c-7.522,7.583-17.659,11.621-28.54,11.38
	l-77.014-1.71C111.084,382.438,109.062,381.561,107.545,380.035z"/>
<path style="opacity:0.1;enable-background:new    ;" d="M37.525,346.89c-5.124-5.163-5.124-13.613,0-18.777l139.23-140.327
	l-7.524-7.584c-5.124-5.163-13.508-5.163-18.633,0L3.843,328.113c-5.124,5.164-5.124,13.613,0,18.777l136.59,137.664
	c5.124,5.163,13.504,5.163,18.628,0l7.526-7.585L37.525,346.89z"/>
<path style="opacity:0.1;enable-background:new    ;" d="M137.101,307.579c-0.242-10.966,3.766-21.182,11.29-28.765
	c6.075-6.126,13.862-9.935,22.365-11.047c-7.649-6.993-17.333-10.944-27.508-11.173c-10.879-0.242-21.016,3.796-28.539,11.379
	c-7.524,7.583-11.533,17.799-11.288,28.765l1.692,77.62c0.045,2.108,0.921,4.151,2.433,5.678c1.516,1.525,3.539,2.403,5.633,2.45
	l25.568,0.567L137.101,307.579z"/>
<path style="fill:#736357;" d="M468.573,53.644c2.559,2.581,2.559,6.805,0,9.388l-27.917,28.133c-2.561,2.582-6.751,2.582-9.314,0
	l-27.914-28.133c-2.561-2.583-2.561-6.807,0-9.388l27.914-28.134c2.563-2.582,6.753-2.582,9.314,0L468.573,53.644z"/>
<path style="fill:#603813;" d="M468.573,53.644c2.559,2.581,2.559,6.805,0,9.388l-27.917,28.133c-2.561,2.582-6.751,2.582-9.314,0
	l-27.914-28.133c-2.561-2.583-2.561-6.807,0-9.388l27.914-28.134c2.563-2.582,6.753-2.582,9.314,0L468.573,53.644z"/>
<path style="fill:#736357;" d="M473.296,257.912c2.561,2.582,2.561,6.806,0,9.388l-18.335,18.479c-2.563,2.583-6.755,2.583-9.314,0
	L427.31,267.3c-2.563-2.582-2.563-6.806,0-9.388l18.337-18.48c2.559-2.582,6.751-2.582,9.314,0L473.296,257.912z"/>
<path style="fill:#603813;" d="M473.296,257.912c2.561,2.582,2.561,6.806,0,9.388l-18.335,18.479c-2.563,2.583-6.755,2.583-9.314,0
	L427.31,267.3c-2.563-2.582-2.563-6.806,0-9.388l18.337-18.48c2.559-2.582,6.751-2.582,9.314,0L473.296,257.912z"/>
<path style="fill:#736357;" d="M510.077,154.249c2.563,2.582,2.563,6.806,0,9.388l-18.335,18.479c-2.561,2.583-6.753,2.583-9.312,0
	l-18.337-18.479c-2.563-2.582-2.563-6.806,0-9.388l18.337-18.48c2.559-2.582,6.751-2.582,9.312,0L510.077,154.249z"/>
<path style="fill:#754C24;" d="M510.077,154.249c2.563,2.582,2.563,6.806,0,9.388l-18.335,18.479c-2.561,2.583-6.753,2.583-9.312,0
	l-18.337-18.479c-2.563-2.582-2.563-6.806,0-9.388l18.337-18.48c2.559-2.582,6.751-2.582,9.312,0L510.077,154.249z"/>
<g>
</g>
<g>
</g>
<g>
</g>
<g>
</g>
<g>
</g>
<g>
</g>
<g>
</g>
<g>
</g>
<g>
</g>
<g>
</g>
<g>
</g>
<g>
</g>
<g>
</g>
<g>
</g>
<g>
</g>
</svg>
